<svg width="63" height="42" viewBox="0 0 63 42" fill="none" xmlns="http://www.w3.org/2000/svg">
<path d="M0.10843 42C0.10843 37.3987 0.92043 33.7253 2.54443 30.98C4.16843 28.2347 6.39176 26.0113 9.21443 24.31C10.7224 23.4207 12.2691 22.6087 13.8544 21.874C15.4398 21.1393 16.9091 20.366 18.2624 19.554C19.6158 18.742 20.6984 17.7753 21.5104 16.654C22.3611 15.494 22.7864 14.0633 22.7864 12.362C22.7864 10.3513 22.1291 8.63067 20.8144 7.2C19.5384 5.76933 17.5471 5.054 14.8404 5.054C13.0231 5.054 11.3798 5.36333 9.91043 5.982C8.47976 6.60066 7.24243 7.33533 6.19843 8.186C5.15443 9.03666 4.3231 9.84866 3.70443 10.622L0.39843 7.316C0.707763 6.92933 1.2491 6.34933 2.02243 5.576C2.83443 4.80267 3.8591 4.01 5.09643 3.198C6.37243 2.386 7.8611 1.70933 9.56243 1.168C11.2638 0.587997 13.1971 0.297998 15.3624 0.297998C18.2624 0.297998 20.6791 0.839331 22.6124 1.922C24.5458 3.00466 25.9958 4.45466 26.9624 6.272C27.9678 8.08933 28.4704 10.1 28.4704 12.304C28.4704 14.276 28.1031 15.9773 27.3684 17.408C26.6338 18.8 25.6864 19.9793 24.5264 20.946C23.3664 21.9127 22.0904 22.7633 20.6984 23.498C19.3451 24.2327 18.0304 24.9287 16.7544 25.586C14.3184 26.746 12.3851 27.8093 10.9544 28.776C9.52376 29.7427 8.42176 30.69 7.64843 31.618C6.91376 32.5073 6.4111 33.416 6.14043 34.344C5.90843 35.272 5.7731 36.2773 5.73443 37.36H28.5284V42H0.10843ZM52.023 42V31.502H32.651V26.92L53.589 0.819998H57.127V26.862H62.231V31.502H57.127V42H52.023ZM37.987 26.862H52.545V8.65L37.987 26.862Z" fill="#10B582"/>
</svg>
