<svg width="51" height="50" viewBox="0 0 51 50" fill="none" xmlns="http://www.w3.org/2000/svg">
<path d="M25.4999 45.8333C23.1987 45.8333 21.3332 43.9678 21.3332 41.6666H29.6665C29.6665 43.9678 27.8011 45.8333 25.4999 45.8333ZM42.1665 39.5833H8.83321V35.4166L12.9999 33.3333V21.875C12.9999 14.6625 15.9603 9.98538 21.3332 8.70829V8.33329C21.3332 6.03211 23.1987 4.16663 25.4999 4.16663C27.8011 4.16663 29.6665 6.03211 29.6665 8.33329V8.70829C35.0395 9.98329 37.9999 14.6583 37.9999 21.875V33.3333L42.1665 35.4166V39.5833ZM25.4999 11.9791C22.9575 11.815 20.5057 12.9526 18.9895 15C17.6927 17.0511 17.0564 19.4508 17.1665 21.875V34.4166C17.1665 34.9689 17.6143 35.4166 18.1665 35.4166H32.8332C33.3855 35.4166 33.8332 34.9689 33.8332 34.4166V21.875C33.9432 19.4508 33.3069 17.0512 32.0103 15C30.4941 12.9526 28.0422 11.815 25.4999 11.9791Z" fill="#D8DEF3"/>
<circle cx="35.4999" cy="17" r="5" fill="url(#paint0_linear_1_785)" stroke="#F2F5FF" stroke-width="2"/>
<defs>
<linearGradient id="paint0_linear_1_785" x1="35.5413" y1="9.01053" x2="36.2896" y2="24.4785" gradientUnits="userSpaceOnUse">
<stop stop-color="#9C2CF3"/>
<stop offset="1" stop-color="#3A49F9"/>
</linearGradient>
</defs>
</svg>
