<svg width="40" height="41" viewBox="0 0 40 41" fill="none" xmlns="http://www.w3.org/2000/svg">
<rect x="21.4061" y="26.0524" width="4.32143" height="12.244" rx="2.16071" transform="rotate(-45 21.4061 26.0524)" fill="#2E3A59"/>
<path fill-rule="evenodd" clip-rule="evenodd" d="M25.735 26.8168C30.6572 21.8946 30.6572 13.914 25.735 8.99181C20.8128 4.06957 12.8323 4.06957 7.91002 8.99181C2.98779 13.914 2.98779 21.8946 7.91002 26.8168C12.8323 31.739 20.8128 31.739 25.735 26.8168ZM23.1886 24.2704C26.7045 20.7545 26.7045 15.0541 23.1886 11.5382C19.6727 8.02235 13.9723 8.02235 10.4564 11.5382C6.94056 15.0541 6.94056 20.7545 10.4564 24.2704C13.9723 27.7862 19.6727 27.7862 23.1886 24.2704Z" fill="#2E3A59"/>
</svg>
