<svg width="25" height="25" viewBox="0 0 25 25" fill="none" xmlns="http://www.w3.org/2000/svg">
<path fill-rule="evenodd" clip-rule="evenodd" d="M9.9798 8.26465C9.9798 7.52482 10.2531 6.81317 10.7437 6.26465C10.7807 6.22326 10.819 6.1828 10.8585 6.14333C11.4211 5.58072 12.1841 5.26465 12.9798 5.26465C13.7754 5.26465 14.5385 5.58072 15.1011 6.14333C15.1406 6.1828 15.1788 6.22326 15.2159 6.26465C15.7065 6.81317 15.9798 7.52482 15.9798 8.26465H18.9798C19.5321 8.26465 19.9798 8.71236 19.9798 9.26465C19.9798 9.81693 19.5321 10.2646 18.9798 10.2646H17.9798V16.2646C17.9798 17.9215 16.6367 19.2646 14.9798 19.2646H10.9798C9.32294 19.2646 7.9798 17.9215 7.9798 16.2646V10.2646H6.9798C6.42751 10.2646 5.9798 9.81693 5.9798 9.26465C5.9798 8.71236 6.42751 8.26465 6.9798 8.26465L9.9798 8.26465ZM11.6161 8.26465L14.3435 8.26465C14.3435 7.90297 14.1998 7.55611 13.9441 7.30037C13.6883 7.04463 13.3415 6.90095 12.9798 6.90095C12.6181 6.90095 12.2713 7.04463 12.0155 7.30037C11.7598 7.55611 11.6161 7.90297 11.6161 8.26465ZM9.9798 16.2646V10.2646H15.9798V16.2646C15.9798 16.8169 15.5321 17.2646 14.9798 17.2646H10.9798C10.4275 17.2646 9.9798 16.8169 9.9798 16.2646Z" fill="#0F1014"/>
</svg>
