<svg width="25" height="25" viewBox="0 0 25 25" fill="none" xmlns="http://www.w3.org/2000/svg">
<path fill-rule="evenodd" clip-rule="evenodd" d="M5.9798 8.5C5.9798 6.84315 7.32294 5.5 8.9798 5.5H12.9798C14.6367 5.5 15.9798 6.84315 15.9798 8.5V9.5H16.9798C18.6367 9.5 19.9798 10.8431 19.9798 12.5V16.5C19.9798 18.1569 18.6367 19.5 16.9798 19.5H12.9798C11.3229 19.5 9.9798 18.1569 9.9798 16.5V15.5H8.9798C7.32294 15.5 5.9798 14.1569 5.9798 12.5V8.5ZM8.9798 7.5H12.9798C13.5321 7.5 13.9798 7.94772 13.9798 8.5V12.5C13.9798 13.0523 13.5321 13.5 12.9798 13.5H8.9798C8.42751 13.5 7.9798 13.0523 7.9798 12.5V8.5C7.9798 7.94772 8.42751 7.5 8.9798 7.5ZM11.9798 15.5V16.5C11.9798 17.0523 12.4275 17.5 12.9798 17.5H16.9798C17.5321 17.5 17.9798 17.0523 17.9798 16.5V12.5C17.9798 11.9477 17.5321 11.5 16.9798 11.5H15.9798V12.5C15.9798 14.1569 14.6367 15.5 12.9798 15.5H11.9798Z" fill="#0F1014"/>
</svg>
