<svg width="25" height="25" viewBox="0 0 25 25" fill="none" xmlns="http://www.w3.org/2000/svg">
<path fill-rule="evenodd" clip-rule="evenodd" d="M15.212 6.50306C16.1883 5.52675 17.7713 5.52675 18.7476 6.50306L19.4547 7.21016C20.431 8.18647 20.431 9.76939 19.4547 10.7457L11.3229 18.8774L8.0803 18.8774C7.52802 18.8774 7.0803 18.4297 7.0803 17.8774L7.0803 14.6348L15.212 6.50306ZM17.3334 7.91727L18.0405 8.62438C18.2357 8.81964 18.2357 9.13622 18.0405 9.33148L16.9798 10.3921L15.5656 8.97793L16.6262 7.91727C16.8215 7.72201 17.1381 7.72201 17.3334 7.91727ZM15.5656 11.8064L10.4945 16.8774L9.0803 16.8774L9.0803 15.4632L14.1514 10.3921L15.5656 11.8064Z" fill="#0F1014"/>
</svg>
