<svg width="30" height="43" viewBox="0 0 30 43" fill="none" xmlns="http://www.w3.org/2000/svg">
<path d="M29.01 30.342C29.01 32.778 28.3333 34.9047 26.98 36.722C25.6653 38.5393 23.8866 39.9507 21.644 40.956C19.44 41.9613 17.0233 42.464 14.394 42.464C11.6486 42.464 9.1933 41.9227 7.02797 40.84C4.86264 39.7187 3.14197 38.23 1.86597 36.374C0.628636 34.518 0.00996889 32.43 0.00996889 30.11C0.00996889 28.4087 0.396636 26.8813 1.16997 25.528C1.9433 24.1747 2.90997 23.034 4.06997 22.106C5.26864 21.1393 6.48664 20.424 7.72397 19.96C6.02264 19.2253 4.53397 18.1233 3.25797 16.654C2.02064 15.1847 1.40197 13.5027 1.40197 11.608C1.40197 9.868 1.78864 8.34067 2.56197 7.026C3.3353 5.67267 4.35997 4.532 5.63597 3.604C6.91197 2.676 8.3233 1.98 9.86997 1.516C11.4166 1.052 12.9633 0.819998 14.51 0.819998C16.0566 0.819998 17.6033 1.052 19.15 1.516C20.6966 1.98 22.108 2.676 23.384 3.604C24.6986 4.49333 25.7426 5.61466 26.516 6.968C27.2893 8.28266 27.676 9.81 27.676 11.55C27.676 13.4447 27.038 15.146 25.762 16.654C24.486 18.1233 22.978 19.2253 21.238 19.96C23.326 20.772 25.1433 22.0867 26.69 23.904C28.2366 25.6827 29.01 27.8287 29.01 30.342ZM6.56397 11.782C6.56397 13.1353 6.96997 14.2953 7.78197 15.262C8.59397 16.2287 9.61864 16.9633 10.856 17.466C12.0933 17.93 13.3113 18.162 14.51 18.162C15.7473 18.162 16.9653 17.9107 18.164 17.408C19.4013 16.9053 20.426 16.1707 21.238 15.204C22.05 14.2373 22.456 13.058 22.456 11.666C22.456 10.3513 22.0693 9.23 21.296 8.302C20.5613 7.374 19.5753 6.65867 18.338 6.156C17.1393 5.65333 15.844 5.402 14.452 5.402C13.0986 5.402 11.8033 5.67266 10.566 6.214C9.3673 6.71666 8.40064 7.45133 7.66597 8.418C6.9313 9.346 6.56397 10.4673 6.56397 11.782ZM23.848 29.994C23.848 28.3313 23.3646 26.92 22.398 25.76C21.47 24.5613 20.2906 23.6527 18.86 23.034C17.4293 22.4153 15.96 22.106 14.452 22.106C12.9053 22.106 11.4166 22.4347 9.98597 23.092C8.59397 23.7493 7.4533 24.6773 6.56397 25.876C5.67464 27.036 5.22997 28.428 5.22997 30.052C5.22997 31.676 5.69397 33.068 6.62197 34.228C7.54997 35.388 8.7293 36.2967 10.16 36.954C11.6293 37.5727 13.0986 37.882 14.568 37.882C16.1146 37.882 17.584 37.5533 18.976 36.896C20.4066 36.2387 21.5666 35.3107 22.456 34.112C23.384 32.9133 23.848 31.5407 23.848 29.994Z" fill="#10B582"/>
</svg>
